<svg id="arrow-left" viewBox="0 0 34 32">
<path d="M31.579 13.479h-24.968l7.642-9.179c0.357-0.43 0.529-0.984 0.478-1.541s-0.322-1.070-0.752-1.428c-0.43-0.357-0.984-0.529-1.541-0.478s-1.070 0.322-1.428 0.752l-10.526 12.632c-0.071 0.1-0.134 0.206-0.189 0.316 0 0.105 0 0.168-0.147 0.274-0.095 0.241-0.145 0.498-0.147 0.758 0.002 0.26 0.052 0.517 0.147 0.758 0 0.105 0 0.168 0.147 0.274 0.055 0.11 0.119 0.215 0.189 0.316l10.526 12.632c0.198 0.238 0.446 0.429 0.726 0.56s0.586 0.199 0.895 0.198c0.492 0.001 0.969-0.17 1.347-0.484 0.213-0.177 0.389-0.394 0.519-0.639s0.209-0.513 0.234-0.789-0.004-0.554-0.086-0.818c-0.082-0.264-0.216-0.51-0.393-0.723l-7.642-9.179h24.968c0.558 0 1.094-0.222 1.489-0.617s0.617-0.93 0.617-1.489-0.222-1.094-0.617-1.489c-0.395-0.395-0.93-0.617-1.489-0.617z"></path>
</svg>
