<svg id="icon-location" viewBox="0 0 31 32">
<path d="M24.32 12.223c0-1.177-0.232-2.342-0.682-3.429s-1.11-2.075-1.942-2.907c-0.832-0.832-1.82-1.492-2.907-1.942s-2.252-0.682-3.429-0.682c-1.177 0-2.342 0.232-3.429 0.682s-2.075 1.11-2.907 1.942c-0.832 0.832-1.492 1.82-1.942 2.907s-0.682 2.252-0.682 3.429c0 1.775 0.525 3.427 1.414 4.819h-0.010c3.021 4.73 7.556 11.821 7.556 11.821l7.556-11.821h-0.009c0.922-1.438 1.412-3.111 1.413-4.819zM15.36 16.063c-1.018 0-1.995-0.405-2.715-1.125s-1.125-1.697-1.125-2.715c0-1.018 0.405-1.995 1.125-2.715s1.697-1.125 2.715-1.125c1.018 0 1.995 0.405 2.715 1.125s1.125 1.697 1.125 2.715c0 1.018-0.405 1.995-1.125 2.715s-1.697 1.125-2.715 1.125z"></path>
</svg>
