<svg id="icon-server" viewBox="0 0 32 32">
<path d="M26.24 4.543h-20.48c-0.679 0-1.33 0.27-1.81 0.75s-0.75 1.131-0.75 1.81v5.12c0 0.679 0.27 1.33 0.75 1.81s1.131 0.75 1.81 0.75h20.48c0.679 0 1.33-0.27 1.81-0.75s0.75-1.131 0.75-1.81v-5.12c0-0.679-0.27-1.33-0.75-1.81s-1.131-0.75-1.81-0.75zM19.84 9.663c0 0.707-0.573 1.28-1.28 1.28s-1.28-0.573-1.28-1.28c0-0.707 0.573-1.28 1.28-1.28s1.28 0.573 1.28 1.28zM24.96 9.663c0 0.707-0.573 1.28-1.28 1.28s-1.28-0.573-1.28-1.28c0-0.707 0.573-1.28 1.28-1.28s1.28 0.573 1.28 1.28zM26.24 17.343h-20.48c-0.679 0-1.33 0.27-1.81 0.75s-0.75 1.131-0.75 1.81v5.12c0 0.679 0.27 1.33 0.75 1.81s1.131 0.75 1.81 0.75h20.48c0.679 0 1.33-0.27 1.81-0.75s0.75-1.131 0.75-1.81v-5.12c0-0.679-0.27-1.33-0.75-1.81s-1.131-0.75-1.81-0.75zM19.84 22.463c0 0.707-0.573 1.28-1.28 1.28s-1.28-0.573-1.28-1.28c0-0.707 0.573-1.28 1.28-1.28s1.28 0.573 1.28 1.28zM24.96 22.463c0 0.707-0.573 1.28-1.28 1.28s-1.28-0.573-1.28-1.28c0-0.707 0.573-1.28 1.28-1.28s1.28 0.573 1.28 1.28z"></path>
</svg>
