<svg id="icon-user" viewBox="0 0 32 32">
<path d="M16 14.527c1.222 0 2.394-0.486 3.258-1.35s1.35-2.036 1.35-3.258-0.485-2.394-1.35-3.258c-0.864-0.864-2.036-1.35-3.258-1.35s-2.394 0.486-3.258 1.35c-0.864 0.864-1.35 2.036-1.35 3.258s0.485 2.394 1.35 3.258c0.864 0.864 2.036 1.35 3.258 1.35zM9.47 28.351c-2.332 0-4.296-1.96-3.404-4.115 0.54-1.304 1.332-2.49 2.331-3.488s2.184-1.79 3.488-2.331c1.304-0.54 2.703-0.818 4.115-0.818s2.81 0.278 4.115 0.818c1.305 0.54 2.49 1.332 3.488 2.331s1.79 2.184 2.331 3.488c0.892 2.154-1.072 4.115-3.404 4.115h-13.059z"></path>
</svg>
